<svg width="512" height="512" viewBox="0 0 135.467 135.467" xml:space="preserve" xmlns="http://www.w3.org/2000/svg"><circle style="fill:#b7c1f5;fill-opacity:1;stroke:none;stroke-width:.264583;stroke-opacity:1" cx="67.733" cy="67.733" r="67.474"/><path style="font-style:italic;font-weight:700;font-size:72.0188px;font-family:'Noto Serif';-inkscape-font-specification:'Noto Serif Bold Italic';fill:#fb1636;stroke-width:6.00157" d="M71.947 88.043q-4.105 0-6.338-1.945-2.233-2.016-2.233-5.473 0-1.513.289-3.673.288-2.16.864-4.897l1.224-5.69q.36-1.44.792-3.817.504-2.449.504-4.25 0-1.367-.576-2.736-.504-1.368-2.304-1.368-1.729 0-3.457 1.728-1.657 1.657-3.17 4.25-1.44 2.592-2.52 5.329-1.008 2.737-1.368 4.825l-.576 3.025q-.288 1.512-.72 4.177-.36 2.665-.72 5.473-.289 2.737-.433 4.538H40.042q.144-1.945.576-4.826.433-2.952 1.009-5.977.576-3.097 1.008-5.258l1.08-5.04q.648-3.17.937-5.114.288-1.945.288-2.953 0-1.296-.36-2.593-.36-1.368-2.017-1.368-1.8 0-3.529 1.584-1.728 1.513-3.24 3.961-1.441 2.377-2.521 4.97-1.009 2.52-1.44 4.537l-4.034 18.077H16.996l6.05-28.664q.144-.648.288-1.584.216-1.009.216-1.513 0-1.944-.864-2.448-.864-.577-2.953-.577h-1.296l.648-3.817h16.708l-1.368 7.346h.504q2.88-4.393 6.05-6.193 3.24-1.873 7.49-1.873 4.393 0 6.121 2.305 1.729 2.305 1.8 5.69v.432h.433q2.664-4.322 5.833-6.482Q65.897 48 70.506 48q4.465 0 6.194 2.52 1.728 2.449 1.728 5.761 0 1.8-.504 4.033-.432 2.233-.792 4.106l-1.656 7.706q-.433 1.944-.72 3.673-.289 1.728-.289 3.24 0 3.241 2.521 3.241 1.152 0 2.089-.432 1.008-.432 2.16-1.224l1.729 2.448q-1.729 1.8-4.394 3.385-2.664 1.585-6.625 1.585zm21.677-12.027-3.673-3.673 10.587-10.66-10.587-10.586 3.673-3.6 10.587 10.586 10.587-10.659 3.673 3.673-10.659 10.659 10.659 10.659-3.601 3.6-10.659-10.658z" aria-label="m×"/></svg>