<svg width="512" height="512" viewBox="0 0 135.467 135.467" xml:space="preserve" xmlns="http://www.w3.org/2000/svg"><circle style="fill:#fff;fill-opacity:1;stroke:none;stroke-width:.264583;stroke-opacity:1" cx="67.733" cy="67.733" r="67.474"/><path style="font-style:italic;font-weight:700;font-size:72.0188px;font-family:'Noto Serif';-inkscape-font-specification:'Noto Serif Bold Italic';fill:#fb1636;stroke-width:5.08101" d="M71.3 84.928q-3.475 0-5.365-1.647-1.89-1.707-1.89-4.633 0-1.281.244-3.11t.732-4.146l1.036-4.817q.305-1.22.67-3.232.427-2.073.427-3.598 0-1.157-.488-2.316-.426-1.158-1.95-1.158-1.464 0-2.927 1.463-1.403 1.403-2.684 3.598-1.219 2.194-2.133 4.511-.854 2.318-1.158 4.085l-.488 2.561q-.244 1.28-.61 3.537-.304 2.256-.61 4.633-.244 2.317-.366 3.842h-9.45q.121-1.647.487-4.086.367-2.499.854-5.06.488-2.622.854-4.451l.914-4.267q.549-2.684.793-4.33.244-1.647.244-2.5 0-1.097-.305-2.195-.304-1.158-1.707-1.158-1.524 0-2.988 1.34-1.463 1.282-2.743 3.354-1.22 2.013-2.134 4.208-.854 2.133-1.22 3.84l-3.415 15.305h-9.146L29.9 60.234q.122-.549.244-1.341.183-.854.183-1.281 0-1.646-.731-2.073-.732-.488-2.5-.488h-1.098l.549-3.232h14.145l-1.158 6.22h.427q2.438-3.72 5.122-5.244 2.743-1.585 6.34-1.585 3.72 0 5.183 1.951 1.464 1.952 1.524 4.817v.366h.367q2.255-3.659 4.938-5.488 2.744-1.83 6.646-1.83 3.78 0 5.244 2.134 1.463 2.074 1.463 4.878 0 1.524-.427 3.414-.366 1.89-.67 3.476l-1.403 6.524q-.366 1.646-.61 3.11-.244 1.463-.244 2.743 0 2.744 2.134 2.744.976 0 1.77-.366.852-.366 1.828-1.036l1.464 2.072q-1.464 1.524-3.72 2.866-2.256 1.342-5.61 1.342zm18.353-10.182-3.11-3.11 8.963-9.025-8.963-8.962 3.11-3.048 8.963 8.962 8.963-9.024 3.11 3.11-9.025 9.024 9.025 9.024-3.05 3.048-9.023-9.023z" aria-label="m×"/></svg>