<svg width="512" height="512" viewBox="0 0 135.467 135.467" xmlns="http://www.w3.org/2000/svg"><defs><path id="a" d="M229.317 232.148H738.91v145.8H229.317z"/></defs><path style="font-weight:700;font-size:38.8056px;text-align:center;text-anchor:middle;fill:#1664fb;stroke-width:3.25111" d="M9.004 53.589h9.284l6.443 15.14 6.48-15.14h9.266v28.29h-6.898V61.186L27.061 76.44h-4.623L15.92 61.187v20.691H9.004zm55.783 23.135H53.38l-1.8 5.154h-7.333l10.479-28.29h8.697L73.9 81.879h-7.333zm-9.588-5.248h7.75L59.084 60.22zm16.068-17.887H97.34v5.514h-9.38v22.775h-7.295V59.102h-9.398zm29.843 0h7.295V64.37h10.763V53.59h7.295v28.29h-7.295V69.883h-10.763v11.994h-7.295z" aria-label="MATH"/><path style="font-weight:700;font-size:49.3889px;text-align:center;text-anchor:middle;fill:#fb1636;stroke-width:4.35912" d="M52.275 20.971v5.668h30.916V20.97H52.275zm0 10.973v5.716h30.916v-5.716H52.275zm4.992 63.365-4.051 4.052 10.466 10.466-10.466 10.418 4.051 4.051 10.466-10.418L78.2 124.296l4.052-4.051-10.466-10.418L82.25 99.36l-4.052-4.052-10.466 10.466L57.267 95.31z"/></svg>